<svg id="visual" viewBox="0 0 960 540" width="960" height="540" xmlns="http://www.w3.org/2000/svg" xmlns:xlink="http://www.w3.org/1999/xlink" version="1.1"><rect x="0" y="0" width="960" height="540" fill="#8d2121"></rect><path d="M0 389L22.8 390.3C45.7 391.7 91.3 394.3 137 391.8C182.7 389.3 228.3 381.7 274 377.5C319.7 373.3 365.3 372.7 411.2 374.3C457 376 503 380 548.8 377.3C594.7 374.7 640.3 365.3 686 368.5C731.7 371.7 777.3 387.3 823 395.5C868.7 403.7 914.3 404.3 937.2 404.7L960 405L960 541L937.2 541C914.3 541 868.7 541 823 541C777.3 541 731.7 541 686 541C640.3 541 594.7 541 548.8 541C503 541 457 541 411.2 541C365.3 541 319.7 541 274 541C228.3 541 182.7 541 137 541C91.3 541 45.7 541 22.8 541L0 541Z" fill="#c4b800"></path><path d="M0 413L22.8 412.5C45.7 412 91.3 411 137 411.3C182.7 411.7 228.3 413.3 274 417.5C319.7 421.7 365.3 428.3 411.2 429.7C457 431 503 427 548.8 428C594.7 429 640.3 435 686 432.7C731.7 430.3 777.3 419.7 823 411.7C868.7 403.7 914.3 398.3 937.2 395.7L960 393L960 541L937.2 541C914.3 541 868.7 541 823 541C777.3 541 731.7 541 686 541C640.3 541 594.7 541 548.8 541C503 541 457 541 411.2 541C365.3 541 319.7 541 274 541C228.3 541 182.7 541 137 541C91.3 541 45.7 541 22.8 541L0 541Z" fill="#d19b00"></path><path d="M0 451L22.8 452.7C45.7 454.3 91.3 457.7 137 455.5C182.7 453.3 228.3 445.7 274 441.5C319.7 437.3 365.3 436.7 411.2 438.5C457 440.3 503 444.7 548.8 448.3C594.7 452 640.3 455 686 459.3C731.7 463.7 777.3 469.3 823 468.7C868.7 468 914.3 461 937.2 457.5L960 454L960 541L937.2 541C914.3 541 868.7 541 823 541C777.3 541 731.7 541 686 541C640.3 541 594.7 541 548.8 541C503 541 457 541 411.2 541C365.3 541 319.7 541 274 541C228.3 541 182.7 541 137 541C91.3 541 45.7 541 22.8 541L0 541Z" fill="#d67d00"></path><path d="M0 482L22.8 481.7C45.7 481.3 91.3 480.7 137 486.2C182.7 491.7 228.3 503.3 274 504.7C319.7 506 365.3 497 411.2 491.8C457 486.7 503 485.3 548.8 489.3C594.7 493.3 640.3 502.7 686 506.7C731.7 510.7 777.3 509.3 823 508.2C868.7 507 914.3 506 937.2 505.5L960 505L960 541L937.2 541C914.3 541 868.7 541 823 541C777.3 541 731.7 541 686 541C640.3 541 594.7 541 548.8 541C503 541 457 541 411.2 541C365.3 541 319.7 541 274 541C228.3 541 182.7 541 137 541C91.3 541 45.7 541 22.8 541L0 541Z" fill="#d85c0c"></path></svg>