<svg id="visual" viewBox="0 0 540 960" width="540" height="960" xmlns="http://www.w3.org/2000/svg" xmlns:xlink="http://www.w3.org/1999/xlink" version="1.1"><rect x="0" y="0" width="540" height="960" fill="#8d2121"></rect><path d="M0 693L12.8 695.2C25.7 697.3 51.3 701.7 77 697C102.7 692.3 128.3 678.7 154 671.5C179.7 664.3 205.3 663.7 231.2 666.8C257 670 283 677 308.8 672C334.7 667 360.3 650 386 655.5C411.7 661 437.3 689 463 703.5C488.7 718 514.3 719 527.2 719.5L540 720L540 961L527.2 961C514.3 961 488.7 961 463 961C437.3 961 411.7 961 386 961C360.3 961 334.7 961 308.8 961C283 961 257 961 231.2 961C205.3 961 179.7 961 154 961C128.3 961 102.7 961 77 961C51.3 961 25.7 961 12.8 961L0 961Z" fill="#c4b800"></path><path d="M0 734L12.8 733.2C25.7 732.3 51.3 730.7 77 731.3C102.7 732 128.3 735 154 742.5C179.7 750 205.3 762 231.2 764.5C257 767 283 760 308.8 761.8C334.7 763.7 360.3 774.3 386 770.3C411.7 766.3 437.3 747.7 463 733.3C488.7 719 514.3 709 527.2 704L540 699L540 961L527.2 961C514.3 961 488.7 961 463 961C437.3 961 411.7 961 386 961C360.3 961 334.7 961 308.8 961C283 961 257 961 231.2 961C205.3 961 179.7 961 154 961C128.3 961 102.7 961 77 961C51.3 961 25.7 961 12.8 961L0 961Z" fill="#d19b00"></path><path d="M0 803L12.8 806C25.7 809 51.3 815 77 811.2C102.7 807.3 128.3 793.7 154 786C179.7 778.3 205.3 776.7 231.2 779.8C257 783 283 791 308.8 797.8C334.7 804.7 360.3 810.3 386 818C411.7 825.7 437.3 835.3 463 834C488.7 832.7 514.3 820.3 527.2 814.2L540 808L540 961L527.2 961C514.3 961 488.7 961 463 961C437.3 961 411.7 961 386 961C360.3 961 334.7 961 308.8 961C283 961 257 961 231.2 961C205.3 961 179.7 961 154 961C128.3 961 102.7 961 77 961C51.3 961 25.7 961 12.8 961L0 961Z" fill="#d67d00"></path><path d="M0 858L12.8 857.3C25.7 856.7 51.3 855.3 77 865C102.7 874.7 128.3 895.3 154 897.8C179.7 900.3 205.3 884.7 231.2 875.7C257 866.7 283 864.3 308.8 871.3C334.7 878.3 360.3 894.7 386 901.7C411.7 908.7 437.3 906.3 463 904.2C488.7 902 514.3 900 527.2 899L540 898L540 961L527.2 961C514.3 961 488.7 961 463 961C437.3 961 411.7 961 386 961C360.3 961 334.7 961 308.8 961C283 961 257 961 231.2 961C205.3 961 179.7 961 154 961C128.3 961 102.7 961 77 961C51.3 961 25.7 961 12.8 961L0 961Z" fill="#d85c0c"></path></svg>