<svg id="visual" viewBox="0 0 960 540" width="960" height="540" xmlns="http://www.w3.org/2000/svg" xmlns:xlink="http://www.w3.org/1999/xlink" version="1.1"><rect x="0" y="0" width="960" height="540" fill="#8d2121"></rect><defs><linearGradient id="grad1_0" x1="43.8%" y1="0%" x2="100%" y2="100%"><stop offset="14.444444444444446%" stop-color="#ffc107" stop-opacity="1"></stop><stop offset="85.55555555555554%" stop-color="#ffc107" stop-opacity="1"></stop></linearGradient></defs><defs><linearGradient id="grad1_1" x1="43.8%" y1="0%" x2="100%" y2="100%"><stop offset="14.444444444444446%" stop-color="#ffc107" stop-opacity="1"></stop><stop offset="85.55555555555554%" stop-color="#8d2121" stop-opacity="1"></stop></linearGradient></defs><defs><linearGradient id="grad2_0" x1="0%" y1="0%" x2="56.3%" y2="100%"><stop offset="14.444444444444446%" stop-color="#ffc107" stop-opacity="1"></stop><stop offset="85.55555555555554%" stop-color="#ffc107" stop-opacity="1"></stop></linearGradient></defs><defs><linearGradient id="grad2_1" x1="0%" y1="0%" x2="56.3%" y2="100%"><stop offset="14.444444444444446%" stop-color="#8d2121" stop-opacity="1"></stop><stop offset="85.55555555555554%" stop-color="#ffc107" stop-opacity="1"></stop></linearGradient></defs><g transform="translate(960, 0)"><path d="M0 351C-33.5 338.2 -67 325.4 -102.9 316.7C-138.8 308 -177 303.2 -206.3 284C-235.6 264.7 -256 230.8 -273.4 198.7C-290.8 166.5 -305.2 136 -317.7 103.2C-330.1 70.4 -340.5 35.2 -351 0L0 0Z" fill="#d36b1d"></path><path d="M0 175.5C-16.8 169.1 -33.5 162.7 -51.5 158.4C-69.4 154 -88.5 151.6 -103.2 142C-117.8 132.3 -128 115.4 -136.7 99.3C-145.4 83.3 -152.6 68 -158.8 51.6C-165 35.2 -170.3 17.6 -175.5 0L0 0Z" fill="#ffc107"></path></g><g transform="translate(0, 540)"><path d="M0 -351C35 -337.5 70.1 -324.1 100.1 -308.1C130.2 -292.2 155.2 -273.9 188.1 -258.9C220.9 -243.9 261.6 -232.2 284 -206.3C306.3 -180.4 310.5 -140.3 318.6 -103.5C326.7 -66.8 338.9 -33.4 351 0L0 0Z" fill="#d36b1d"></path><path d="M0 -175.5C17.5 -168.8 35 -162 50.1 -154.1C65.1 -146.1 77.6 -136.9 94 -129.4C110.5 -121.9 130.8 -116.1 142 -103.2C153.2 -90.2 155.2 -70.1 159.3 -51.8C163.4 -33.4 169.4 -16.7 175.5 0L0 0Z" fill="#ffc107"></path></g></svg>